<svg width="25" height="25" viewBox="0 0 25 25" fill="none" xmlns="http://www.w3.org/2000/svg">
<path d="M12.5 0C5.6075 0 0 5.6075 0 12.5C0 19.3925 5.6075 25 12.5 25C19.3925 25 25 19.3925 25 12.5C25 5.6075 19.3925 0 12.5 0ZM12.5 22.5C6.98625 22.5 2.5 18.0138 2.5 12.5C2.5 6.98625 6.98625 2.5 12.5 2.5C18.0138 2.5 22.5 6.98625 22.5 12.5C22.5 18.0138 18.0138 22.5 12.5 22.5Z" fill="#D84727"/>
<path d="M16.0375 16.0349C15.5806 16.4903 15.0409 16.8544 14.4475 17.1074C13.3791 17.5585 12.1872 17.6243 11.0757 17.2937C9.96411 16.9631 9.00195 16.2565 8.35375 15.2949L6.28125 16.6937C6.82179 17.4913 7.50949 18.1786 8.3075 18.7187C9.11957 19.2678 10.032 19.6514 10.9925 19.8474C11.9885 20.0506 13.0153 20.0506 14.0113 19.8474C14.9717 19.6511 15.884 19.2676 16.6962 18.7187C17.0875 18.4537 17.4613 18.1462 17.8038 17.8049C18.1438 17.4662 18.4537 17.0912 18.7212 16.6937L16.6487 15.2949C16.4691 15.5605 16.2644 15.8083 16.0375 16.0349Z" fill="#D84727"/>
<path d="M8.125 12.5C9.16053 12.5 10 11.6605 10 10.625C10 9.58947 9.16053 8.75 8.125 8.75C7.08947 8.75 6.25 9.58947 6.25 10.625C6.25 11.6605 7.08947 12.5 8.125 12.5Z" fill="#D84727"/>
<path d="M16.8663 12.4825C17.897 12.4825 18.7325 11.647 18.7325 10.6163C18.7325 9.58555 17.897 8.75 16.8663 8.75C15.8355 8.75 15 9.58555 15 10.6163C15 11.647 15.8355 12.4825 16.8663 12.4825Z" fill="#D84727"/>
</svg>
