<svg width="20" height="17" viewBox="0 0 20 17" fill="none" xmlns="http://www.w3.org/2000/svg">
<path d="M20 1.92406C19.2641 2.25041 18.4733 2.47098 17.6433 2.57017C18.4905 2.06233 19.1411 1.2582 19.4475 0.300084C18.6547 0.770255 17.7765 1.11175 16.8419 1.2958C16.0933 0.498336 15.027 0 13.8468 0C11.5807 0 9.74344 1.83716 9.74344 4.10315C9.74344 4.42474 9.7798 4.73792 9.84974 5.03822C6.43952 4.86711 3.41607 3.23355 1.3923 0.751088C1.0391 1.35711 0.836753 2.06196 0.836753 2.81393C0.836753 4.23746 1.56121 5.4934 2.6622 6.2292C1.98954 6.20791 1.35689 6.02334 0.803614 5.71601C0.803321 5.73313 0.803321 5.75032 0.803321 5.76758C0.803321 7.75566 2.21771 9.4141 4.09481 9.79099C3.75047 9.88478 3.38798 9.93489 3.01372 9.93489C2.74933 9.93489 2.49226 9.90921 2.24178 9.8613C2.76389 11.4915 4.27923 12.6778 6.07476 12.7109C4.67047 13.8114 2.9012 14.4674 0.978821 14.4674C0.647646 14.4674 0.321007 14.448 0 14.4101C1.81587 15.5743 3.97271 16.2536 6.28992 16.2536C13.8372 16.2536 17.9644 10.0012 17.9644 4.57895C17.9644 4.40104 17.9604 4.22408 17.9525 4.04814C18.7542 3.46962 19.4499 2.74692 20 1.92406Z" fill="#55ACEE"/>
</svg>
