<svg width="39" height="45" viewBox="0 0 39 45" fill="none" xmlns="http://www.w3.org/2000/svg">
<path fill-rule="evenodd" clip-rule="evenodd" d="M0 6.42857C0 4.72361 0.684819 3.08848 1.90381 1.88288C3.12279 0.677294 4.77609 0 6.5 0H32.5C34.2239 0 35.8772 0.677294 37.0962 1.88288C38.3152 3.08848 39 4.72361 39 6.42857V38.5714C39 40.2764 38.3152 41.9115 37.0962 43.1171C35.8772 44.3227 34.2239 45 32.5 45H6.5C4.77609 45 3.12279 44.3227 1.90381 43.1171C0.684819 41.9115 0 40.2764 0 38.5714V6.42857ZM19.5 28.9286C20.7804 28.9286 22.0482 28.6792 23.2312 28.1946C24.4141 27.71 25.4889 26.9997 26.3943 26.1042C27.2997 25.2088 28.0178 24.1458 28.5078 22.9759C28.9978 21.806 29.25 20.552 29.25 19.2857C29.25 18.0194 28.9978 16.7655 28.5078 15.5956C28.0178 14.4256 27.2997 13.3626 26.3943 12.4672C25.4889 11.5718 24.4141 10.8615 23.2312 10.3769C22.0482 9.89228 20.7804 9.64286 19.5 9.64286C16.9141 9.64286 14.4342 10.6588 12.6057 12.4672C10.7772 14.2756 9.75 16.7283 9.75 19.2857C9.75 21.8432 10.7772 24.2959 12.6057 26.1042C14.4342 27.9126 16.9141 28.9286 19.5 28.9286ZM35.75 37.7839C32.9745 34.7946 28.0247 32.1429 19.5 32.1429C10.9753 32.1429 6.0255 34.7979 3.25 37.7839V38.5714C3.25 39.4239 3.59241 40.2415 4.2019 40.8443C4.8114 41.4471 5.63805 41.7857 6.5 41.7857H32.5C33.362 41.7857 34.1886 41.4471 34.7981 40.8443C35.4076 40.2415 35.75 39.4239 35.75 38.5714V37.7839Z" fill="#D84727"/>
</svg>
